<svg width="853" height="229" viewBox="0 0 853 229" fill="none" xmlns="http://www.w3.org/2000/svg">
<path d="M150.174 150.816L98.8093 181.402C94.2381 184.124 88.5434 184.124 83.9722 181.402L32.607 150.816C23.0889 145.148 23.1845 131.333 32.7803 125.797L84.1455 96.1674C88.6294 93.5809 94.1521 93.5809 98.636 96.1674L150.001 125.797C159.597 131.333 159.693 145.148 150.174 150.816Z" fill="#01B3BE" stroke="white" stroke-width="11"/>
<path d="M149.937 127.571L98.5715 158.157C94.0003 160.879 88.3056 160.879 83.7344 158.157L32.3693 127.571C22.8511 121.903 22.9467 108.087 32.5425 102.552L83.9077 72.9221C88.3916 70.3356 93.9143 70.3356 98.3983 72.9221L149.763 102.552C159.359 108.087 159.455 121.903 149.937 127.571Z" fill="#01B3BE" stroke="white" stroke-width="11"/>
<path d="M149.7 103.649L98.3347 134.235C93.7635 136.957 88.0688 136.957 83.4976 134.235L32.1324 103.649C22.6142 97.9811 22.7099 84.1655 32.3057 78.6302L83.6709 49.0002C88.1548 46.4136 93.6775 46.4136 98.1614 49.0002L149.527 78.6302C159.122 84.1655 159.218 97.9811 149.7 103.649Z" fill="#01B3BE" stroke="white" stroke-width="11"/>
<path d="M273.274 89.306C272.494 88.4394 270.847 87.3127 268.334 85.926C265.821 84.4527 262.787 83.1527 259.234 82.026C255.767 80.8127 252.171 80.206 248.444 80.206C238.651 80.206 233.754 83.6727 233.754 90.606C233.754 93.1194 234.534 95.1127 236.094 96.586C237.654 98.0594 239.994 99.316 243.114 100.356C246.234 101.396 250.134 102.523 254.814 103.736C260.881 105.296 266.124 107.116 270.544 109.196C275.051 111.276 278.474 114.049 280.814 117.516C283.241 120.896 284.454 125.403 284.454 131.036C284.454 137.623 282.851 142.953 279.644 147.026C276.524 151.013 272.364 153.916 267.164 155.736C261.964 157.556 256.331 158.466 250.264 158.466C243.331 158.466 236.441 157.426 229.594 155.346C222.834 153.179 216.811 150.233 211.524 146.506L219.454 131.036C220.234 131.816 221.621 132.856 223.614 134.156C225.607 135.369 228.034 136.626 230.894 137.926C233.754 139.139 236.874 140.179 240.254 141.046C243.634 141.913 247.057 142.346 250.524 142.346C260.404 142.346 265.344 139.183 265.344 132.856C265.344 130.169 264.347 128.003 262.354 126.356C260.361 124.709 257.544 123.323 253.904 122.196C250.351 121.069 246.191 119.813 241.424 118.426C235.531 116.779 230.634 114.959 226.734 112.966C222.921 110.886 220.061 108.329 218.154 105.296C216.247 102.176 215.294 98.2327 215.294 93.466C215.294 87.1394 216.767 81.8527 219.714 77.606C222.747 73.2727 226.821 70.0227 231.934 67.856C237.047 65.6027 242.724 64.476 248.964 64.476C255.377 64.476 261.357 65.516 266.904 67.596C272.451 69.676 277.217 72.0594 281.204 74.746L273.274 89.306ZM327.781 158.726C320.327 158.726 313.914 157.123 308.541 153.916C303.254 150.623 299.181 146.289 296.321 140.916C293.461 135.543 292.031 129.736 292.031 123.496C292.031 117.169 293.461 111.319 296.321 105.946C299.267 100.573 303.384 96.2827 308.671 93.076C314.044 89.7827 320.414 88.136 327.781 88.136C335.147 88.136 341.474 89.7827 346.761 93.076C352.134 96.2827 356.251 100.573 359.111 105.946C361.971 111.319 363.401 117.169 363.401 123.496C363.401 129.736 361.971 135.543 359.111 140.916C356.251 146.289 352.134 150.623 346.761 153.916C341.474 157.123 335.147 158.726 327.781 158.726ZM309.971 123.496C309.971 127.483 310.751 131.036 312.311 134.156C313.871 137.189 315.994 139.573 318.681 141.306C321.367 143.039 324.401 143.906 327.781 143.906C331.074 143.906 334.064 143.039 336.751 141.306C339.437 139.486 341.561 137.059 343.121 134.026C344.767 130.906 345.591 127.353 345.591 123.366C345.591 119.466 344.767 115.999 343.121 112.966C341.561 109.846 339.437 107.419 336.751 105.686C334.064 103.866 331.074 102.956 327.781 102.956C324.401 102.956 321.367 103.866 318.681 105.686C315.994 107.419 313.871 109.846 312.311 112.966C310.751 115.999 309.971 119.509 309.971 123.496ZM400.249 158.726C394.442 158.726 388.895 157.773 383.609 155.866C378.322 153.959 373.772 151.143 369.959 147.416L376.199 136.106C380.272 139.399 384.259 141.826 388.159 143.386C392.059 144.946 395.872 145.726 399.599 145.726C402.979 145.726 405.665 145.119 407.659 143.906C409.739 142.693 410.779 140.873 410.779 138.446C410.779 135.933 409.522 134.243 407.009 133.376C404.495 132.423 400.985 131.253 396.479 129.866C391.452 128.306 387.249 126.703 383.869 125.056C380.489 123.409 377.932 121.416 376.199 119.076C374.552 116.736 373.729 113.703 373.729 109.976C373.729 103.303 376.242 97.9727 381.269 93.986C386.295 89.9994 392.969 88.006 401.289 88.006C406.142 88.006 410.735 88.786 415.069 90.346C419.402 91.8194 423.345 94.246 426.899 97.626L419.879 108.676C413.205 103.476 406.749 100.876 400.509 100.876C397.735 100.876 395.265 101.396 393.099 102.436C391.019 103.476 389.979 105.296 389.979 107.896C389.979 110.323 390.975 112.056 392.969 113.096C395.049 114.136 398.169 115.263 402.329 116.476C407.702 118.123 412.252 119.726 415.979 121.286C419.792 122.846 422.652 124.839 424.559 127.266C426.552 129.693 427.549 132.986 427.549 137.146C427.549 143.906 425.079 149.193 420.139 153.006C415.199 156.819 408.569 158.726 400.249 158.726ZM502.707 157.426H485.287V119.206C485.287 113.919 484.247 109.976 482.167 107.376C480.173 104.776 477.4 103.476 473.847 103.476C471.68 103.476 469.427 104.083 467.087 105.296C464.833 106.509 462.753 108.199 460.847 110.366C459.027 112.446 457.683 114.873 456.817 117.646V157.426H439.397V62.526H456.817V101.916C459.33 97.5827 462.753 94.2027 467.087 91.776C471.42 89.3494 476.143 88.136 481.257 88.136C487.063 88.136 491.527 89.436 494.647 92.036C497.767 94.636 499.89 97.9727 501.017 102.046C502.143 106.119 502.707 110.409 502.707 114.916V157.426ZM519.29 157.426V65.126H552.83C562.883 65.126 571.29 67.206 578.05 71.366C584.81 75.4394 589.88 80.986 593.26 88.006C596.64 94.9394 598.33 102.653 598.33 111.146C598.33 120.506 596.467 128.653 592.74 135.586C589.013 142.519 583.727 147.893 576.88 151.706C570.033 155.519 562.017 157.426 552.83 157.426H519.29ZM580.26 111.146C580.26 105.166 579.177 99.9227 577.01 95.416C574.843 90.8227 571.723 87.2694 567.65 84.756C563.577 82.156 558.637 80.856 552.83 80.856H537.23V141.696H552.83C558.723 141.696 563.707 140.396 567.78 137.796C571.853 135.109 574.93 131.469 577.01 126.876C579.177 122.196 580.26 116.953 580.26 111.146ZM642.247 158.726C634.88 158.726 628.51 157.123 623.137 153.916C617.85 150.709 613.733 146.463 610.787 141.176C607.84 135.803 606.367 129.996 606.367 123.756C606.367 117.343 607.797 111.449 610.657 106.076C613.603 100.616 617.763 96.2827 623.137 93.076C628.51 89.7827 634.923 88.136 642.377 88.136C649.83 88.136 656.2 89.7827 661.487 93.076C666.773 96.2827 670.803 100.573 673.577 105.946C676.437 111.233 677.867 116.953 677.867 123.106C677.867 125.359 677.737 127.309 677.477 128.956H624.827C625.26 134.243 627.21 138.403 630.677 141.436C634.23 144.469 638.303 145.986 642.897 145.986C646.363 145.986 649.613 145.163 652.647 143.516C655.767 141.783 657.89 139.529 659.017 136.756L673.967 140.916C671.453 146.116 667.423 150.406 661.877 153.786C656.33 157.079 649.787 158.726 642.247 158.726ZM624.437 117.906H660.057C659.537 112.793 657.587 108.676 654.207 105.556C650.913 102.349 646.883 100.746 642.117 100.746C637.437 100.746 633.407 102.349 630.027 105.556C626.733 108.676 624.87 112.793 624.437 117.906ZM720.199 158.726C712.832 158.726 706.462 157.079 701.089 153.786C695.715 150.493 691.555 146.159 688.609 140.786C685.662 135.413 684.189 129.606 684.189 123.366C684.189 117.039 685.619 111.189 688.479 105.816C691.425 100.443 695.585 96.1527 700.959 92.946C706.332 89.7394 712.702 88.136 720.069 88.136C727.522 88.136 733.849 89.7394 739.049 92.946C744.335 96.1527 748.279 100.356 750.879 105.556L733.849 110.756C730.815 105.556 726.179 102.956 719.939 102.956C716.559 102.956 713.525 103.823 710.839 105.556C708.152 107.203 706.029 109.586 704.469 112.706C702.909 115.739 702.129 119.293 702.129 123.366C702.129 127.353 702.909 130.906 704.469 134.026C706.115 137.059 708.282 139.486 710.969 141.306C713.655 143.039 716.645 143.906 719.939 143.906C723.059 143.906 725.919 143.169 728.519 141.696C731.205 140.136 733.069 138.186 734.109 135.846L751.139 141.046C748.799 146.159 744.899 150.406 739.439 153.786C734.065 157.079 727.652 158.726 720.199 158.726ZM808.398 157.426L788.508 128.046L779.278 137.146V157.426H761.858V62.526H779.278V119.986L806.708 89.436H825.168L799.818 118.296L826.988 157.426H808.398Z" fill="white"/>
</svg>
